<mxfile host="app.diagrams.net" agent="Mozilla/5.0 (Windows NT 10.0; Win64; x64) AppleWebKit/537.36 (KHTML, like Gecko) Chrome/121.0.0.0 Safari/537.36 Edg/121.0.0.0" version="26.1.0">
  <diagram name="第 1 页" id="_eTEKBA5uluccoUnd-p1">
    <mxGraphModel dx="1119" dy="2047" grid="1" gridSize="10" guides="1" tooltips="1" connect="1" arrows="1" fold="1" page="1" pageScale="1" pageWidth="827" pageHeight="1169" math="0" shadow="0">
      <root>
        <mxCell id="0" />
        <mxCell id="1" parent="0" />
        <mxCell id="6inA8Zs1QLdD0x7Q3dL--24" value="" style="endArrow=none;html=1;rounded=0;strokeWidth=3;" edge="1" parent="1">
          <mxGeometry width="50" height="50" relative="1" as="geometry">
            <mxPoint x="237.5" y="1000" as="sourcePoint" />
            <mxPoint x="238.5" y="950" as="targetPoint" />
          </mxGeometry>
        </mxCell>
        <mxCell id="6inA8Zs1QLdD0x7Q3dL--22" value="" style="endArrow=none;html=1;rounded=0;strokeWidth=3;" edge="1" parent="1">
          <mxGeometry width="50" height="50" relative="1" as="geometry">
            <mxPoint x="237.5" y="910" as="sourcePoint" />
            <mxPoint x="238.5" y="860" as="targetPoint" />
          </mxGeometry>
        </mxCell>
        <mxCell id="6inA8Zs1QLdD0x7Q3dL--18" value="" style="endArrow=none;html=1;rounded=0;strokeWidth=3;" edge="1" parent="1" target="6inA8Zs1QLdD0x7Q3dL--17">
          <mxGeometry width="50" height="50" relative="1" as="geometry">
            <mxPoint x="237" y="830" as="sourcePoint" />
            <mxPoint x="237" y="790" as="targetPoint" />
          </mxGeometry>
        </mxCell>
        <mxCell id="6inA8Zs1QLdD0x7Q3dL--15" value="" style="strokeWidth=2;html=1;shape=mxgraph.flowchart.annotation_2;align=left;labelPosition=right;pointerEvents=1;rotation=90;" vertex="1" parent="1">
          <mxGeometry x="296" y="610" width="77" height="120" as="geometry" />
        </mxCell>
        <mxCell id="6inA8Zs1QLdD0x7Q3dL--12" value="" style="strokeWidth=2;html=1;shape=mxgraph.flowchart.annotation_2;align=left;labelPosition=right;pointerEvents=1;rotation=90;" vertex="1" parent="1">
          <mxGeometry x="381.5" y="490" width="77" height="120" as="geometry" />
        </mxCell>
        <mxCell id="6inA8Zs1QLdD0x7Q3dL--28" style="edgeStyle=orthogonalEdgeStyle;rounded=0;orthogonalLoop=1;jettySize=auto;html=1;" edge="1" parent="1" source="6inA8Zs1QLdD0x7Q3dL--1" target="6inA8Zs1QLdD0x7Q3dL--2">
          <mxGeometry relative="1" as="geometry" />
        </mxCell>
        <mxCell id="6inA8Zs1QLdD0x7Q3dL--1" value="jwautofill" style="rounded=0;whiteSpace=wrap;html=1;" vertex="1" parent="1">
          <mxGeometry x="369" y="-220" width="118" height="70" as="geometry" />
        </mxCell>
        <mxCell id="6inA8Zs1QLdD0x7Q3dL--26" value="" style="edgeStyle=orthogonalEdgeStyle;rounded=0;orthogonalLoop=1;jettySize=auto;html=1;" edge="1" parent="1" source="6inA8Zs1QLdD0x7Q3dL--2" target="6inA8Zs1QLdD0x7Q3dL--4">
          <mxGeometry relative="1" as="geometry" />
        </mxCell>
        <mxCell id="6inA8Zs1QLdD0x7Q3dL--2" value="初始化界面" style="rounded=0;whiteSpace=wrap;html=1;" vertex="1" parent="1">
          <mxGeometry x="332" y="-110" width="120" height="60" as="geometry" />
        </mxCell>
        <mxCell id="6inA8Zs1QLdD0x7Q3dL--30" style="edgeStyle=orthogonalEdgeStyle;rounded=0;orthogonalLoop=1;jettySize=auto;html=1;exitX=0.5;exitY=1;exitDx=0;exitDy=0;entryX=0.5;entryY=0;entryDx=0;entryDy=0;" edge="1" parent="1" source="6inA8Zs1QLdD0x7Q3dL--3" target="6inA8Zs1QLdD0x7Q3dL--5">
          <mxGeometry relative="1" as="geometry" />
        </mxCell>
        <mxCell id="6inA8Zs1QLdD0x7Q3dL--3" value="进入判断选区的逻辑" style="shape=hexagon;perimeter=hexagonPerimeter2;whiteSpace=wrap;html=1;fixedSize=1;" vertex="1" parent="1">
          <mxGeometry x="332" y="85" width="176" height="80" as="geometry" />
        </mxCell>
        <mxCell id="6inA8Zs1QLdD0x7Q3dL--29" style="edgeStyle=orthogonalEdgeStyle;rounded=0;orthogonalLoop=1;jettySize=auto;html=1;exitX=0.5;exitY=1;exitDx=0;exitDy=0;entryX=0.5;entryY=0;entryDx=0;entryDy=0;" edge="1" parent="1" source="6inA8Zs1QLdD0x7Q3dL--4" target="6inA8Zs1QLdD0x7Q3dL--3">
          <mxGeometry relative="1" as="geometry" />
        </mxCell>
        <mxCell id="6inA8Zs1QLdD0x7Q3dL--4" value="增加选区历史记录监听，定义函数" style="rounded=0;whiteSpace=wrap;html=1;" vertex="1" parent="1">
          <mxGeometry x="332" y="-20" width="270" height="60" as="geometry" />
        </mxCell>
        <mxCell id="6inA8Zs1QLdD0x7Q3dL--31" style="edgeStyle=orthogonalEdgeStyle;rounded=0;orthogonalLoop=1;jettySize=auto;html=1;exitX=0.5;exitY=1;exitDx=0;exitDy=0;" edge="1" parent="1" source="6inA8Zs1QLdD0x7Q3dL--5" target="6inA8Zs1QLdD0x7Q3dL--6">
          <mxGeometry relative="1" as="geometry" />
        </mxCell>
        <mxCell id="6inA8Zs1QLdD0x7Q3dL--32" style="edgeStyle=orthogonalEdgeStyle;rounded=0;orthogonalLoop=1;jettySize=auto;html=1;exitX=0.625;exitY=1;exitDx=0;exitDy=0;" edge="1" parent="1" source="6inA8Zs1QLdD0x7Q3dL--5" target="6inA8Zs1QLdD0x7Q3dL--7">
          <mxGeometry relative="1" as="geometry">
            <Array as="points">
              <mxPoint x="420" y="260" />
              <mxPoint x="420" y="285" />
              <mxPoint x="520" y="285" />
            </Array>
          </mxGeometry>
        </mxCell>
        <mxCell id="6inA8Zs1QLdD0x7Q3dL--5" value="是否有文档打开" style="shape=hexagon;perimeter=hexagonPerimeter2;whiteSpace=wrap;html=1;fixedSize=1;" vertex="1" parent="1">
          <mxGeometry x="332" y="180" width="176" height="80" as="geometry" />
        </mxCell>
        <mxCell id="6inA8Zs1QLdD0x7Q3dL--6" value="判断当前工具是否是忽略工具" style="shape=hexagon;perimeter=hexagonPerimeter2;whiteSpace=wrap;html=1;fixedSize=1;" vertex="1" parent="1">
          <mxGeometry x="230" y="310" width="176" height="80" as="geometry" />
        </mxCell>
        <mxCell id="6inA8Zs1QLdD0x7Q3dL--7" value="跳过填充" style="shape=hexagon;perimeter=hexagonPerimeter2;whiteSpace=wrap;html=1;fixedSize=1;" vertex="1" parent="1">
          <mxGeometry x="432" y="310" width="176" height="80" as="geometry" />
        </mxCell>
        <mxCell id="6inA8Zs1QLdD0x7Q3dL--9" value="当前工具是套索等非忽略工具&lt;div&gt;时判断是否产生选区&lt;/div&gt;" style="shape=hexagon;perimeter=hexagonPerimeter2;whiteSpace=wrap;html=1;fixedSize=1;" vertex="1" parent="1">
          <mxGeometry x="326" y="450" width="176" height="80" as="geometry" />
        </mxCell>
        <mxCell id="6inA8Zs1QLdD0x7Q3dL--10" value="跳过填充" style="shape=hexagon;perimeter=hexagonPerimeter2;whiteSpace=wrap;html=1;fixedSize=1;" vertex="1" parent="1">
          <mxGeometry x="120" y="450" width="176" height="80" as="geometry" />
        </mxCell>
        <mxCell id="6inA8Zs1QLdD0x7Q3dL--13" value="产生了选区后&lt;br&gt;判断选区是否发生变化" style="shape=hexagon;perimeter=hexagonPerimeter2;whiteSpace=wrap;html=1;fixedSize=1;" vertex="1" parent="1">
          <mxGeometry x="250" y="570" width="176" height="80" as="geometry" />
        </mxCell>
        <mxCell id="6inA8Zs1QLdD0x7Q3dL--14" value="跳过填充" style="shape=hexagon;perimeter=hexagonPerimeter2;whiteSpace=wrap;html=1;fixedSize=1;" vertex="1" parent="1">
          <mxGeometry x="440" y="570" width="176" height="80" as="geometry" />
        </mxCell>
        <mxCell id="6inA8Zs1QLdD0x7Q3dL--16" value="跳过填充" style="shape=hexagon;perimeter=hexagonPerimeter2;whiteSpace=wrap;html=1;fixedSize=1;" vertex="1" parent="1">
          <mxGeometry x="340" y="700" width="176" height="80" as="geometry" />
        </mxCell>
        <mxCell id="6inA8Zs1QLdD0x7Q3dL--17" value="选区变化自动填充" style="shape=hexagon;perimeter=hexagonPerimeter2;whiteSpace=wrap;html=1;fixedSize=1;" vertex="1" parent="1">
          <mxGeometry x="150" y="700" width="176" height="80" as="geometry" />
        </mxCell>
        <mxCell id="6inA8Zs1QLdD0x7Q3dL--20" value="如果历史记录自动更新checkbox勾选&lt;div&gt;自动更新历史记录&lt;/div&gt;" style="rounded=0;whiteSpace=wrap;html=1;" vertex="1" parent="1">
          <mxGeometry x="89" y="810" width="270" height="60" as="geometry" />
        </mxCell>
        <mxCell id="6inA8Zs1QLdD0x7Q3dL--21" value="根据滑块的羽化值，羽化当前选区&lt;br&gt;根据混合模式与不透明度，填充前景色。" style="rounded=0;whiteSpace=wrap;html=1;" vertex="1" parent="1">
          <mxGeometry x="89" y="900" width="270" height="60" as="geometry" />
        </mxCell>
        <mxCell id="6inA8Zs1QLdD0x7Q3dL--23" value="如果勾选填充后取消选区，填充后自动取消选区" style="rounded=0;whiteSpace=wrap;html=1;" vertex="1" parent="1">
          <mxGeometry x="89" y="990" width="270" height="60" as="geometry" />
        </mxCell>
      </root>
    </mxGraphModel>
  </diagram>
</mxfile>
